<svg xmlns="http://www.w3.org/2000/svg" xmlns:xlink="http://www.w3.org/1999/xlink" width="40" zoomAndPan="magnify" viewBox="0 0 30 30.000001" height="40" preserveAspectRatio="xMidYMid meet" version="1.0"><defs><clipPath id="ce2c57bb79"><path d="M 0.484375 0.0546875 L 29.464844 0.0546875 L 29.464844 29.03125 L 0.484375 29.03125 Z M 0.484375 0.0546875 " clip-rule="nonzero"/></clipPath></defs><g clip-path="url(#ce2c57bb79)"><path fill="#fee600" d="M 14.976562 0.0664062 C 6.941406 0.0664062 0.429688 6.574219 0.429688 14.609375 C 0.429688 21.824219 5.695312 27.820312 12.582031 28.953125 L 12.582031 19.09375 L 8.882812 19.09375 L 8.882812 14.773438 L 12.582031 14.773438 L 12.582031 11.636719 C 12.582031 8.238281 15.339844 5.933594 18.742188 5.933594 C 20.253906 5.933594 21.195312 6.160156 21.195312 6.160156 L 21.195312 9.785156 L 18.742188 9.785156 C 17.722656 9.785156 16.890625 10.617188 16.890625 11.636719 L 16.890625 14.773438 L 20.855469 14.773438 L 20.304688 19.09375 L 16.890625 19.09375 L 16.890625 29.015625 C 24.003906 28.070312 29.496094 21.976562 29.496094 14.609375 C 29.507812 6.574219 22.996094 0.0664062 14.976562 0.0664062 Z M 14.976562 0.0664062 " fill-opacity="1" fill-rule="nonzero"/></g></svg>