<svg xmlns="http://www.w3.org/2000/svg" xmlns:xlink="http://www.w3.org/1999/xlink" width="40" zoomAndPan="magnify" viewBox="0 0 30 30.000001" height="40" preserveAspectRatio="xMidYMid meet" version="1.0"><defs><clipPath id="ce534074c9"><path d="M 0.484375 0 L 29.515625 0 L 29.515625 29.03125 L 0.484375 29.03125 Z M 0.484375 0 " clip-rule="nonzero"/></clipPath></defs><path fill="#fee600" d="M 15.300781 6.660156 C 11.066406 6.660156 7.621094 10.105469 7.621094 14.339844 C 7.621094 15.824219 8.050781 17.257812 8.839844 18.5 L 9.03125 18.789062 L 8.289062 21.453125 L 11.105469 20.789062 L 11.367188 20.949219 C 12.550781 21.65625 13.917969 22.03125 15.300781 22.03125 C 19.535156 22.03125 22.980469 18.589844 22.980469 14.351562 C 22.980469 10.117188 19.535156 6.660156 15.300781 6.660156 Z M 19.675781 17.644531 C 19.601562 18.023438 18.796875 18.5 18.28125 18.636719 C 17 18.976562 15.1875 17.996094 13.402344 16.4375 C 11.605469 14.878906 10.398438 13.222656 10.550781 11.902344 C 10.613281 11.375 10.992188 10.507812 11.34375 10.394531 C 11.695312 10.28125 11.945312 10.394531 12.308594 10.507812 C 12.488281 10.707031 12.710938 10.945312 12.964844 11.234375 C 13.304688 11.613281 13.53125 11.953125 13.667969 12.191406 C 13.78125 12.390625 13.742188 12.644531 13.566406 12.792969 L 12.953125 13.347656 C 12.839844 13.449219 12.800781 13.609375 12.863281 13.75 C 13.050781 14.152344 13.492188 14.980469 14.15625 15.558594 C 14.8125 16.136719 15.703125 16.464844 16.132812 16.589844 C 16.269531 16.640625 16.433594 16.578125 16.507812 16.453125 L 16.972656 15.773438 C 17.097656 15.585938 17.351562 15.507812 17.5625 15.597656 C 17.816406 15.710938 18.191406 15.886719 18.605469 16.164062 C 18.921875 16.375 19.199219 16.566406 19.410156 16.714844 C 19.601562 17.054688 19.75 17.292969 19.675781 17.644531 Z M 19.675781 17.644531 " fill-opacity="1" fill-rule="nonzero"/><g clip-path="url(#ce534074c9)"><path fill="#fee600" d="M 15 0 C 6.980469 0 0.484375 6.496094 0.484375 14.515625 C 0.484375 22.535156 6.980469 29.03125 15 29.03125 C 23.019531 29.03125 29.515625 22.535156 29.515625 14.515625 C 29.503906 6.496094 23.007812 0 15 0 Z M 15.300781 23.527344 C 13.742188 23.527344 12.222656 23.136719 10.863281 22.382812 L 6.152344 23.503906 L 7.394531 19.015625 C 6.554688 17.59375 6.113281 15.988281 6.113281 14.328125 C 6.113281 9.261719 10.238281 5.140625 15.300781 5.140625 C 20.367188 5.140625 24.488281 9.273438 24.488281 14.339844 C 24.488281 19.40625 20.367188 23.527344 15.300781 23.527344 Z M 15.300781 23.527344 " fill-opacity="1" fill-rule="nonzero"/></g></svg>